<?xml version="1.0" encoding="utf-8"?>
<!-- Generator: Adobe Illustrator 25.0.1, SVG Export Plug-In . SVG Version: 6.00 Build 0)  -->
<svg version="1.1" id="Layer_1" xmlns="http://www.w3.org/2000/svg" xmlns:xlink="http://www.w3.org/1999/xlink" x="0px" y="0px"
	 viewBox="0 0 1068.35 845.64" style="enable-background:new 0 0 1068.35 845.64;" xml:space="preserve">
<style type="text/css">
	.st0{fill:#494848;}
	.st1{fill:#AAAAAA;}
	.st2{fill:#4C4C4C;}
	.st3{fill:#969696;}
</style>
<g>
	<g>
		<g>
			<g>
				<polygon class="st0" points="223.33,306.38 566.52,119.33 566.52,44.57 223.33,257.59 				"/>
			</g>
			<g>
				<polygon class="st0" points="223.33,394.18 566.52,253.9 566.52,179.14 223.33,345.4 				"/>
			</g>
			<g>
				<polygon class="st0" points="223.33,481.99 566.52,388.47 566.52,313.71 223.33,433.21 				"/>
			</g>
			<g>
				<polygon class="st0" points="223.33,569.8 566.52,523.04 566.52,448.28 223.33,521.02 				"/>
			</g>
			<g>
				<polygon class="st0" points="223.33,657.61 566.52,657.61 566.52,582.85 223.33,608.83 				"/>
			</g>
		</g>
	</g>
	<g>
		<g>
			<polygon class="st1" points="909.71,306.38 566.52,119.33 566.52,44.57 909.71,257.59 			"/>
		</g>
		<g>
			<polygon class="st1" points="909.68,345.38 909.68,394.18 805.98,351.79 788.15,344.5 788.15,322.69 707.5,286.81 707.5,311.57 
				689.66,304.28 566.52,253.93 566.52,179.12 			"/>
		</g>
		<g>
			<polygon class="st1" points="707.5,362.8 707.5,426.91 689.66,422.05 566.52,388.49 566.52,313.69 689.66,356.6 			"/>
			<polygon class="st1" points="909.68,433.21 909.68,482.01 805.98,453.74 788.15,448.88 788.15,390.87 805.98,397.08 			"/>
		</g>
		<g>
			<polygon class="st1" points="909.68,521.04 909.68,569.79 566.52,523.06 566.52,448.31 689.66,474.41 707.5,478.19 707.5,485.37 
				788.15,502.07 788.15,495.3 805.98,499.07 			"/>
		</g>
		<g>
			<polygon class="st1" points="909.71,657.61 566.52,657.61 566.52,582.85 909.71,608.83 			"/>
		</g>
	</g>
	<g>
		<path class="st1" d="M689.66,261.27v237.65l116.32,15.72V312.97L689.66,261.27z M788.15,502.07l-80.65-16.7V286.81l80.65,35.88
			V502.07z"/>
	</g>
	<g>
		<polygon class="st1" points="753.01,503.06 742.63,502.75 742.63,293.03 753.01,293.01 		"/>
	</g>
	<g>
		<rect x="179.92" y="141.35" class="st1" width="12.19" height="516.26"/>
	</g>
	<g>
		<rect x="407.59" y="62.49" class="st1" width="12.19" height="595.12"/>
	</g>
	<g>
		<rect x="293.75" y="134.87" class="st1" width="12.19" height="522.74"/>
	</g>
	<g>
		<rect x="556.03" class="st1" width="12.19" height="657.61"/>
	</g>
	<g>
		<path class="st1" d="M564.24,118.74L412.52,91.61L191.33,223.92c-3.56,2.13-5.42,6.1-4.73,10.12c0.7,4.08,3.83,7.26,7.98,8.1
			l106.14,21.24l263.52-133.06V118.74z M298.98,250.6l-96.28-19.27l212.15-126.91l128.23,22.92L298.98,250.6z"/>
	</g>
	<g>
		<path class="st1" d="M564.24,328.16l-154.01-18.59l-224.57,90.67c-3.93,1.58-6.16,5.06-5.69,8.85c0.5,3.97,3.92,7.04,8.49,7.66
			l105.91,14.31l1.43,0.2l268.44-91.49V328.16z M294.59,418.78l-91.62-12.37l208.91-84.36l122.99,14.84L294.59,418.78z"/>
	</g>
	<g>
		<path class="st1" d="M564.24,488.53l-153.8-13.39l-224.22,65.34c-5.05,1.48-6.54,5.29-6.28,8.1c0.27,3,2.74,6.7,8.74,7.3
			l106.95,10.42l268.61-66.07V488.53z M294.75,553.96l-83.31-8.13l200.21-58.35l113.25,9.87L294.75,553.96z"/>
	</g>
	<g>
		<rect y="651.52" class="st1" width="1068.35" height="12.19"/>
	</g>
	<g>
		<rect y="820.03" class="st1" width="335.96" height="12.19"/>
	</g>
	<g>
		<rect x="732.39" y="820.03" class="st1" width="335.96" height="12.19"/>
	</g>
	<g>
		<g>
			<g>
				<polygon points="374.15,845.04 397.95,845.04 397.95,839.43 379.98,839.43 379.98,828.47 394.98,828.47 394.98,822.86 
					379.98,822.86 379.98,812.87 397.95,812.87 397.95,807.26 374.15,807.26 				"/>
			</g>
			<g>
				<path d="M444.51,827.18c-1.08-0.9-2.39-1.68-3.94-2.35c-1.55-0.66-3.31-1.21-5.29-1.64c-1.4-0.29-2.61-0.62-3.62-1
					c-1.01-0.37-1.81-0.81-2.4-1.29c-0.6-0.49-1.03-1.05-1.32-1.67c-0.29-0.63-0.43-1.32-0.43-2.08c0-1.04,0.3-1.95,0.89-2.72
					c0.6-0.78,1.41-1.38,2.46-1.81c1.04-0.43,2.27-0.65,3.67-0.65c1.22,0,2.38,0.21,3.45,0.62c1.08,0.41,2.07,1.03,2.97,1.84
					c0.9,0.81,1.71,1.81,2.43,2.99l4.1-4.05c-0.83-1.44-1.87-2.65-3.13-3.65c-1.26-0.99-2.7-1.73-4.32-2.24
					c-1.62-0.5-3.4-0.75-5.34-0.75c-1.84,0-3.54,0.26-5.13,0.78c-1.58,0.52-2.96,1.26-4.13,2.21c-1.17,0.96-2.09,2.08-2.75,3.38
					c-0.67,1.3-1,2.7-1,4.21c0,1.55,0.23,2.94,0.7,4.18c0.47,1.24,1.19,2.35,2.16,3.32c0.97,0.97,2.18,1.78,3.62,2.43
					c1.44,0.64,3.13,1.17,5.07,1.56c1.22,0.22,2.3,0.48,3.24,0.78c0.94,0.31,1.75,0.66,2.46,1.05c0.7,0.4,1.28,0.83,1.73,1.3
					c0.45,0.47,0.78,0.99,1,1.57c0.22,0.58,0.33,1.19,0.33,1.84c0,0.97-0.33,1.84-0.97,2.59c-0.64,0.76-1.53,1.35-2.64,1.78
					c-1.12,0.43-2.36,0.65-3.73,0.65c-2.23,0-4.15-0.49-5.77-1.46c-1.62-0.97-3.31-2.72-5.07-5.24l-4,4.59
					c1.12,1.62,2.39,2.98,3.81,4.07c1.42,1.1,3,1.92,4.75,2.46c1.75,0.54,3.64,0.81,5.69,0.81c2.84,0,5.29-0.48,7.34-1.43
					c2.05-0.95,3.63-2.31,4.75-4.07c1.12-1.76,1.67-3.85,1.67-6.26c0-1.3-0.28-2.5-0.84-3.61
					C446.41,829.08,445.59,828.08,444.51,827.18z"/>
			</g>
			<g>
				<polygon points="467.76,812.87 478.34,812.87 478.34,845.04 484.17,845.04 484.17,812.87 495.07,812.87 495.07,807.26 
					467.76,807.26 				"/>
			</g>
			<g>
				<path d="M512.81,837.54c-1.11,0-2.02,0.38-2.7,1.14c-0.68,0.76-1.03,1.73-1.03,2.91c0,1.3,0.33,2.29,0.97,3
					c0.65,0.7,1.56,1.05,2.75,1.05c1.12,0,2.02-0.37,2.7-1.13c0.68-0.76,1.03-1.73,1.03-2.91c0-1.3-0.33-2.29-0.97-3
					C514.92,837.89,514,837.54,512.81,837.54z"/>
			</g>
			<g>
				<polygon points="551.66,806.72 548.85,806.72 538.75,812.12 540.32,817.19 545.77,814.31 545.77,839.43 539.78,839.43 
					539.78,845.04 557.81,845.04 557.81,839.43 551.66,839.43 				"/>
			</g>
			<g>
				<path d="M600.16,810.31c-1.19-1.17-2.57-2.08-4.15-2.73c-1.58-0.65-3.27-0.97-5.07-0.97c-2.48,0-4.72,0.59-6.72,1.78
					s-3.57,2.8-4.72,4.83c-1.15,2.03-1.73,4.33-1.73,6.88c0,2.12,0.52,4.08,1.57,5.88c1.05,1.8,2.43,3.24,4.15,4.32
					c1.73,1.08,3.62,1.62,5.67,1.62c1.01,0,2-0.15,2.97-0.46c0.97-0.31,1.91-0.76,2.83-1.35c0.03-0.02,0.05-0.05,0.08-0.07
					l-6.8,14.46l0.22,0.54h5.72l4.48-9.39c1.01-2.16,1.85-4.06,2.54-5.69c0.68-1.64,1.23-3.09,1.64-4.37
					c0.42-1.28,0.71-2.43,0.89-3.45c0.18-1.03,0.27-1.99,0.27-2.89c0-1.73-0.34-3.35-1.03-4.89
					C602.28,812.83,601.35,811.48,600.16,810.31z M594.17,825.58c-1.12,0.63-2.38,0.94-3.78,0.94c-1.23,0-2.34-0.33-3.35-1
					c-1.01-0.67-1.81-1.54-2.4-2.62c-0.59-1.08-0.89-2.25-0.89-3.51c0-1.47,0.3-2.76,0.89-3.86c0.6-1.1,1.39-1.96,2.4-2.59
					c1.01-0.63,2.16-0.94,3.45-0.94c1.41,0,2.66,0.32,3.75,0.97c1.1,0.65,1.95,1.54,2.56,2.67c0.61,1.14,0.92,2.4,0.92,3.81
					c0,1.33-0.31,2.53-0.94,3.59C596.16,824.11,595.29,824.96,594.17,825.58z"/>
			</g>
			<g>
				<path d="M645,810.31c-1.19-1.17-2.57-2.08-4.15-2.73c-1.58-0.65-3.27-0.97-5.07-0.97c-2.48,0-4.72,0.59-6.72,1.78
					s-3.57,2.8-4.72,4.83c-1.15,2.03-1.73,4.33-1.73,6.88c0,2.12,0.52,4.08,1.57,5.88c1.05,1.8,2.43,3.24,4.15,4.32
					c1.73,1.08,3.62,1.62,5.67,1.62c1.01,0,2-0.15,2.97-0.46c0.97-0.31,1.91-0.76,2.83-1.35c0.03-0.02,0.05-0.05,0.08-0.07
					l-6.8,14.45l0.22,0.54h5.72l4.48-9.39c1.01-2.16,1.85-4.06,2.54-5.69c0.68-1.64,1.23-3.09,1.64-4.37
					c0.42-1.28,0.71-2.43,0.89-3.45c0.18-1.03,0.27-1.99,0.27-2.89c0-1.73-0.34-3.35-1.03-4.89
					C647.12,812.83,646.18,811.48,645,810.31z M639.01,825.58c-1.12,0.63-2.38,0.94-3.78,0.94c-1.23,0-2.34-0.33-3.35-1
					s-1.81-1.54-2.4-2.62c-0.59-1.08-0.89-2.25-0.89-3.51c0-1.47,0.3-2.76,0.89-3.86c0.6-1.1,1.39-1.96,2.4-2.59
					c1.01-0.63,2.16-0.94,3.45-0.94c1.4,0,2.66,0.32,3.75,0.97s1.95,1.54,2.56,2.67c0.61,1.14,0.92,2.4,0.92,3.81
					c0,1.33-0.31,2.53-0.94,3.59C640.99,824.11,640.12,824.96,639.01,825.58z"/>
			</g>
			<g>
				<path d="M693.69,831.23c-0.34-0.97-0.84-1.89-1.48-2.75c-0.65-0.87-1.41-1.64-2.29-2.32c-0.61-0.47-1.33-0.8-2.03-1.15
					c0.65-0.31,1.32-0.62,1.87-1c0.77-0.54,1.41-1.13,1.91-1.78c0.51-0.65,0.89-1.37,1.16-2.16c0.27-0.79,0.4-1.62,0.4-2.48
					c0-1.91-0.53-3.63-1.59-5.18c-1.06-1.55-2.48-2.79-4.26-3.73c-1.78-0.93-3.77-1.4-5.96-1.4c-2.2,0-4.18,0.47-5.96,1.4
					c-1.78,0.94-3.2,2.18-4.26,3.73c-1.06,1.55-1.59,3.27-1.59,5.18c0,0.86,0.13,1.69,0.4,2.48c0.27,0.79,0.67,1.53,1.21,2.21
					c0.54,0.69,1.18,1.29,1.91,1.81c0.49,0.35,1.09,0.6,1.66,0.88c-0.68,0.37-1.4,0.72-1.96,1.15c-0.9,0.69-1.66,1.44-2.29,2.27
					c-0.63,0.83-1.1,1.74-1.4,2.73c-0.31,0.99-0.46,2.04-0.46,3.16c0,2.02,0.57,3.85,1.73,5.5c1.15,1.66,2.69,2.98,4.61,3.97
					c1.93,0.99,4.06,1.48,6.4,1.48c2.38,0,4.52-0.48,6.45-1.46c1.93-0.97,3.47-2.29,4.62-3.94c1.15-1.65,1.73-3.51,1.73-5.56
					C694.2,833.21,694.03,832.2,693.69,831.23z M676.15,815.14c0.52-0.75,1.24-1.36,2.16-1.81c0.92-0.45,1.95-0.67,3.11-0.67
					c1.15,0,2.18,0.22,3.1,0.67c0.92,0.45,1.64,1.05,2.16,1.81c0.52,0.76,0.78,1.62,0.78,2.59s-0.26,1.82-0.78,2.56
					c-0.52,0.74-1.24,1.32-2.16,1.75c-0.92,0.43-1.95,0.65-3.1,0.65c-1.15,0-2.19-0.21-3.11-0.65c-0.92-0.43-1.64-1.02-2.16-1.75
					c-0.52-0.74-0.78-1.59-0.78-2.56S675.63,815.9,676.15,815.14z M687.51,837c-0.61,0.87-1.45,1.55-2.51,2.05
					c-1.06,0.5-2.26,0.75-3.59,0.75c-1.33,0-2.52-0.26-3.56-0.78c-1.05-0.52-1.87-1.22-2.48-2.08c-0.61-0.87-0.92-1.84-0.92-2.91
					c0-1.19,0.31-2.24,0.92-3.16c0.61-0.92,1.44-1.64,2.48-2.18c1.04-0.54,2.23-0.81,3.56-0.81c1.33,0,2.52,0.27,3.59,0.81
					c1.06,0.54,1.9,1.27,2.51,2.18c0.61,0.92,0.92,1.97,0.92,3.16C688.43,835.15,688.12,836.14,687.51,837z"/>
			</g>
		</g>
	</g>
	<g>
		<g>
			<g>
				<path d="M50.98,737.21c-2.18-1.74-4.77-3.22-7.75-4.43c-2.99-1.21-6.33-2.18-10.02-2.92c-1.61-0.27-3.15-0.62-4.63-1.06
					c-1.48-0.44-2.79-0.97-3.93-1.61c-1.14-0.64-2.05-1.36-2.72-2.16c-0.67-0.8-1-1.78-1-2.92c0-1.27,0.4-2.37,1.21-3.27
					c0.81-0.9,1.93-1.61,3.37-2.11c1.44-0.5,3.17-0.76,5.18-0.76c1.95,0,3.84,0.3,5.69,0.91c1.85,0.61,3.59,1.48,5.24,2.62
					c1.64,1.14,3.17,2.58,4.58,4.33l10.57-10.16c-1.68-2.55-3.71-4.73-6.09-6.54c-2.38-1.81-5.23-3.21-8.55-4.18
					c-3.32-0.97-7.3-1.46-11.93-1.46c-3.49,0-6.85,0.52-10.07,1.56c-3.22,1.04-6.06,2.52-8.5,4.43c-2.45,1.91-4.39,4.2-5.84,6.85
					s-2.16,5.55-2.16,8.71c0,2.95,0.47,5.62,1.41,8c0.94,2.38,2.36,4.5,4.28,6.34c1.91,1.85,4.31,3.41,7.2,4.68
					c2.88,1.28,6.27,2.35,10.16,3.22c1.41,0.27,2.79,0.59,4.13,0.96c1.34,0.37,2.62,0.8,3.83,1.31c1.21,0.5,2.25,1.06,3.12,1.66
					c0.87,0.61,1.56,1.31,2.06,2.12c0.5,0.8,0.75,1.71,0.75,2.72c0,1.34-0.4,2.47-1.21,3.37c-0.81,0.91-1.95,1.59-3.42,2.06
					c-1.47,0.47-3.12,0.71-4.93,0.71c-3.62,0-7.13-0.77-10.52-2.32c-3.39-1.54-6.76-4.56-10.12-9.06L0,760.56
					c2.28,2.88,4.86,5.38,7.75,7.5c2.88,2.12,6.19,3.73,9.91,4.83c3.73,1.11,7.9,1.66,12.53,1.66c5.37,0,10.12-0.89,14.24-2.67
					c4.13-1.77,7.38-4.36,9.77-7.75c2.38-3.39,3.57-7.53,3.57-12.43c0-3.15-0.59-5.92-1.76-8.3
					C54.84,741.02,53.16,738.95,50.98,737.21z"/>
			</g>
			<g>
				<polygon points="124.51,703.09 65.03,703.09 65.03,718.18 85.96,718.18 85.96,773.54 103.07,773.54 103.07,718.18 
					124.51,718.18 				"/>
			</g>
			<g>
				<path d="M150.48,703.09l-27.88,70.46h16.91l5.03-13.49h25.79l5.02,13.49h17.31l-27.68-70.46H150.48z M149.35,747.17l3.45-9.26
					c0.54-1.68,1.11-3.31,1.71-4.88c0.61-1.57,1.16-3.15,1.66-4.73c0.45-1.4,0.9-2.83,1.35-4.26c0.43,1.4,0.87,2.81,1.32,4.26
					c0.54,1.71,1.07,3.37,1.61,4.98c0.53,1.61,1.07,3.12,1.61,4.53l3.48,9.36H149.35z"/>
			</g>
			<g>
				<path d="M245.4,745.77c3.62-2.01,6.47-4.78,8.56-8.3c2.08-3.53,3.12-7.5,3.12-11.93c0-4.3-1.04-8.14-3.12-11.53
					c-2.08-3.39-4.95-6.06-8.61-8c-3.66-1.95-7.74-2.92-12.23-2.92h-31.7v70.46h16.3v-24.76h8.8l13.95,24.76H260l-15.8-27.21
					C244.6,746.14,245.01,745.98,245.4,745.77z M217.72,717.38h12.38c2.15,0,3.97,0.37,5.48,1.11c1.51,0.74,2.67,1.79,3.47,3.17
					s1.21,2.97,1.21,4.78c0,1.81-0.35,3.42-1.06,4.83s-1.71,2.5-3.02,3.27c-1.31,0.77-2.84,1.15-4.58,1.15h-13.89V717.38z"/>
			</g>
			<g>
				<path d="M290.99,703.09l-27.88,70.46h16.91l5.03-13.49h25.79l5.02,13.49h17.31l-27.68-70.46H290.99z M289.86,747.17l3.45-9.26
					c0.54-1.68,1.11-3.31,1.71-4.88c0.61-1.57,1.16-3.15,1.66-4.73c0.45-1.4,0.9-2.83,1.35-4.26c0.43,1.4,0.87,2.81,1.32,4.26
					c0.54,1.71,1.07,3.37,1.61,4.98c0.53,1.61,1.07,3.12,1.61,4.53l3.48,9.36H289.86z"/>
			</g>
			<g>
				<path d="M418.12,745.77c3.62-2.01,6.47-4.78,8.56-8.3c2.08-3.53,3.12-7.5,3.12-11.93c0-4.3-1.04-8.14-3.12-11.53
					c-2.08-3.39-4.95-6.06-8.61-8c-3.66-1.95-7.74-2.92-12.23-2.92h-31.7v70.46h16.3v-24.76h8.8l13.95,24.76h19.53l-15.8-27.21
					C417.32,746.14,417.73,745.98,418.12,745.77z M390.44,717.38h12.38c2.15,0,3.97,0.37,5.48,1.11c1.51,0.74,2.67,1.79,3.47,3.17
					s1.21,2.97,1.21,4.78c0,1.81-0.35,3.42-1.06,4.83s-1.71,2.5-3.02,3.27c-1.31,0.77-2.84,1.15-4.58,1.15h-13.89V717.38z"/>
			</g>
			<g>
				<polygon points="443.39,717.48 455.26,717.48 455.26,759.15 443.39,759.15 443.39,773.54 484.36,773.54 484.36,759.15 
					472.38,759.15 472.38,717.48 484.36,717.48 484.36,703.09 443.39,703.09 				"/>
			</g>
			<g>
				<path d="M511.53,717.98h12.89v32.11c0,1.81-0.34,3.39-1.01,4.73c-0.67,1.35-1.63,2.4-2.87,3.17c-1.24,0.77-2.67,1.16-4.28,1.16
					c-1,0-1.96-0.13-2.87-0.4c-0.91-0.27-1.78-0.71-2.62-1.31c-0.84-0.61-1.7-1.36-2.57-2.27c-0.87-0.91-1.78-2.06-2.72-3.47
					l-9.76,10.17c1.07,1.95,2.35,3.71,3.83,5.28c1.47,1.58,3.15,2.92,5.03,4.03c1.88,1.11,3.96,1.94,6.24,2.51
					c2.28,0.57,4.7,0.86,7.25,0.86c3.29,0,6.33-0.52,9.11-1.56c2.78-1.04,5.21-2.55,7.3-4.53c2.08-1.98,3.71-4.35,4.88-7.1
					c1.18-2.75,1.76-5.84,1.76-9.26v-34.12h10.87v-14.89h-40.46V717.98z"/>
			</g>
			<g>
				<polygon points="584.2,744.66 612.18,744.66 612.18,730.76 584.2,730.76 584.2,717.68 616.71,717.68 616.71,703.09 
					567.6,703.09 567.6,773.54 617.72,773.54 617.72,758.95 584.2,758.95 				"/>
			</g>
			<g>
				<polygon points="695.73,703.09 675.5,703.09 649.63,729.33 649.63,703.09 632.52,703.09 632.52,773.54 649.63,773.54 
					649.63,748.36 654.75,743.34 677.71,773.54 697.64,773.54 665.74,732.54 				"/>
			</g>
			<g>
				<path d="M728.53,703.09l-27.88,70.46h16.91l5.03-13.49h25.79l5.02,13.49h17.31l-27.68-70.46H728.53z M727.39,747.17l3.45-9.26
					c0.54-1.68,1.11-3.31,1.71-4.88c0.61-1.57,1.16-3.15,1.66-4.73c0.45-1.4,0.9-2.83,1.35-4.26c0.43,1.4,0.87,2.81,1.32,4.26
					c0.54,1.71,1.07,3.37,1.61,4.98c0.53,1.61,1.07,3.12,1.61,4.53l3.48,9.36H727.39z"/>
			</g>
			<g>
				<path d="M843.29,725.35c-0.78-0.79-1.64-1.54-2.62-2.23c-1.81-1.27-3.83-2.28-6.04-3.02s-4.53-1.11-6.94-1.11
					c-4.7,0-8.86,1.21-12.48,3.62c-3.62,2.41-6.48,5.72-8.56,9.92c-2.08,4.19-3.12,8.97-3.12,14.34c0,5.37,1.04,10.15,3.12,14.34
					c2.08,4.19,4.91,7.48,8.5,9.86s7.7,3.57,12.33,3.57c2.48,0,4.85-0.35,7.1-1.06c2.24-0.71,4.24-1.65,5.99-2.82
					c1.38-0.93,2.5-2,3.48-3.16l0.44,5.93h15v-74.48h-16.21V725.35z M842.23,754.42c-0.97,2.15-2.37,3.83-4.18,5.03
					c-1.81,1.21-3.96,1.81-6.44,1.81c-2.48,0-4.62-0.61-6.39-1.81c-1.78-1.21-3.17-2.88-4.18-5.03c-1.01-2.15-1.51-4.66-1.51-7.55
					c0-2.95,0.5-5.5,1.51-7.65c1-2.15,2.4-3.83,4.18-5.03c1.78-1.21,3.91-1.81,6.39-1.81c2.48,0,4.63,0.61,6.44,1.81
					c1.81,1.21,3.21,2.88,4.18,5.03c0.97,2.15,1.46,4.7,1.46,7.65C843.69,749.76,843.2,752.27,842.23,754.42z"/>
			</g>
			<g>
				<path d="M878.82,756.63c-2.55,0-4.63,0.84-6.24,2.52c-1.61,1.68-2.41,3.86-2.41,6.54c0,2.88,0.76,5.1,2.27,6.64
					c1.51,1.54,3.64,2.32,6.39,2.32c2.62,0,4.73-0.84,6.34-2.52c1.61-1.68,2.42-3.83,2.42-6.44c0-2.88-0.77-5.12-2.32-6.69
					C883.71,757.42,881.56,756.63,878.82,756.63z"/>
			</g>
			<g>
				<path d="M938.96,722.61c-4.33-2.42-9.28-3.62-14.85-3.62c-5.57,0-10.52,1.21-14.85,3.62c-4.33,2.41-7.75,5.7-10.27,9.86
					c-2.52,4.16-3.77,8.92-3.77,14.29c0,5.37,1.26,10.13,3.77,14.3c2.52,4.16,5.94,7.44,10.27,9.86c4.33,2.41,9.28,3.62,14.85,3.62
					c5.57,0,10.52-1.21,14.85-3.62c4.33-2.42,7.74-5.71,10.22-9.86c2.48-4.16,3.72-8.92,3.72-14.3c0-5.37-1.24-10.13-3.72-14.29
					C946.69,728.32,943.29,725.03,938.96,722.61z M934.98,753.92c-1.08,2.08-2.55,3.73-4.43,4.93c-1.88,1.21-4.03,1.81-6.44,1.81
					c-2.41,0-4.58-0.6-6.49-1.81c-1.91-1.21-3.41-2.85-4.48-4.93c-1.07-2.08-1.58-4.46-1.51-7.15c-0.07-2.68,0.44-5.08,1.51-7.2
					c1.07-2.11,2.57-3.77,4.48-4.98c1.91-1.21,4.08-1.81,6.49-1.81c2.41,0,4.56,0.61,6.44,1.81c1.88,1.21,3.35,2.87,4.43,4.98
					c1.07,2.12,1.58,4.51,1.51,7.2C936.56,749.45,936.05,751.84,934.98,753.92z"/>
			</g>
			<g>
				<path d="M969.21,756.63c-2.55,0-4.63,0.84-6.24,2.52c-1.61,1.68-2.41,3.86-2.41,6.54c0,2.88,0.76,5.1,2.27,6.64
					c1.51,1.54,3.64,2.32,6.39,2.32c2.62,0,4.73-0.84,6.34-2.52c1.61-1.68,2.42-3.83,2.42-6.44c0-2.88-0.77-5.12-2.32-6.69
					C974.1,757.42,971.95,756.63,969.21,756.63z"/>
			</g>
			<g>
				<path d="M1029.34,722.61c-4.33-2.42-9.28-3.62-14.85-3.62c-5.57,0-10.52,1.21-14.85,3.62c-4.33,2.41-7.75,5.7-10.27,9.86
					c-2.52,4.16-3.77,8.92-3.77,14.29c0,5.37,1.26,10.13,3.77,14.3c2.52,4.16,5.94,7.44,10.27,9.86c4.33,2.41,9.28,3.62,14.85,3.62
					c5.57,0,10.52-1.21,14.85-3.62c4.33-2.42,7.74-5.71,10.22-9.86c2.48-4.16,3.72-8.92,3.72-14.3c0-5.37-1.24-10.13-3.72-14.29
					C1037.08,728.32,1033.67,725.03,1029.34,722.61z M1025.37,753.92c-1.08,2.08-2.55,3.73-4.43,4.93
					c-1.88,1.21-4.03,1.81-6.44,1.81c-2.41,0-4.58-0.6-6.49-1.81c-1.91-1.21-3.41-2.85-4.48-4.93c-1.07-2.08-1.58-4.46-1.51-7.15
					c-0.07-2.68,0.44-5.08,1.51-7.2c1.07-2.11,2.57-3.77,4.48-4.98c1.91-1.21,4.08-1.81,6.49-1.81c2.41,0,4.56,0.61,6.44,1.81
					c1.88,1.21,3.35,2.87,4.43,4.98c1.07,2.12,1.58,4.51,1.51,7.2C1026.94,749.45,1026.44,751.84,1025.37,753.92z"/>
			</g>
			<g>
				<path d="M1066.03,759c-1.54-1.58-3.69-2.37-6.44-2.37c-2.55,0-4.63,0.84-6.24,2.52c-1.61,1.68-2.41,3.86-2.41,6.54
					c0,2.88,0.76,5.1,2.27,6.64c1.51,1.54,3.64,2.32,6.39,2.32c2.62,0,4.73-0.84,6.34-2.52c1.61-1.68,2.42-3.83,2.42-6.44
					C1068.35,762.81,1067.57,760.58,1066.03,759z"/>
			</g>
		</g>
	</g>
</g>
</svg>
